<?xml version="1.0" encoding="UTF-8"?><svg id="Layer_1" xmlns="http://www.w3.org/2000/svg" viewBox="0 0 154.29 140.5"><defs><style>.cls-1{fill:none;stroke:#000;stroke-linecap:round;stroke-miterlimit:10;stroke-width:5px;}</style></defs><path class="cls-1" d="m130.95,29.9c6.86,14.57-5.54,33.36-16.37,42.6-4.51,3.85-9.75,6.93-15.44,8.65-5.44,1.65-11.36,1.77-17,2.18-8.8.65-18.09.78-26.61-1.71-1.42-.42-2.81-.98-4.02-1.84-9.49-6.75-3.28-21.86,1.95-29.14,1.96-2.73,4.29-5.28,7.21-6.94,3.58-2.04,7.65-2.25,11.51-.9,9.31,3.27,12.43,12.84,12.72,21.9s-.67,19.14-5.54,26.89-13.43,13.61-22.23,16.89c-9.22,3.43-19.28,5.05-29.12,4.67-7.04-.27-15.85-1.4-21.09-6.65-6.25-6.26-5.27-15.96-.76-22.91,5.43-8.37,15.74-12.76,25.29-8.77,2.49,1.04,4.82,2.62,6.3,4.87,4.24,6.44,1.3,15.84-1.21,22.42-4.9,12.85-12.58,24.97-20.88,35.9"/><path class="cls-1" d="m109.43,40.64L135.02,3.29c.87-1.28,2.84-.96,3.26.53l13.5,47.29"/></svg>