<?xml version="1.0" encoding="UTF-8"?>
<svg id="Crystal" xmlns="http://www.w3.org/2000/svg" xmlns:xlink="http://www.w3.org/1999/xlink" viewBox="0 0 25.68 49.9">
  <defs>
    <style>
      .cls-1 {
        fill: url(#linear-gradient);
        stroke-width: 0px;
      }
    </style>
    <linearGradient id="linear-gradient" x1="0" y1="24.95" x2="25.68" y2="24.95" gradientUnits="userSpaceOnUse">
      <stop offset="0" stop-color="#92a4ff"/>
      <stop offset="1" stop-color="#fcd6f8"/>
    </linearGradient>
  </defs>
  <path class="cls-1" d="m11.93,49.47c.24.28.55.43.91.43s.67-.14.91-.43l11.56-11.99c.24-.24.37-.55.37-.91V13.33c0-.37-.12-.67-.37-.91L13.75.43c-.24-.28-.55-.43-.91-.43s-.67.14-.91.43L.37,12.41c-.24.24-.37.55-.37.91v23.24c0,.37.12.67.37.91l11.56,11.99Zm1.22-36.81l4.08,6.02c.08.12.12.26.12.43v11.68c0,.16-.04.3-.12.43l-4.08,6.02c-.08.16-.18.24-.3.24s-.22-.08-.3-.24l-4.08-6.02c-.08-.12-.12-.26-.12-.43v-11.68c0-.16.04-.3.12-.43l4.08-6.02c.08-.16.18-.24.3-.24s.22.08.3.24Zm-10.1.85L12.11,3.22c.12-.12.27-.15.46-.09s.27.19.27.4v3.1c0,.12-.02.22-.06.3l-6.94,8.64c-.08.08-.17.13-.27.15s-.19-.01-.27-.09l-2.19-1.52c-.08-.04-.13-.12-.15-.24s.01-.24.09-.37Zm-.73,3.1c0-.16.06-.27.18-.33s.26-.05.43.03l2.25,1.52c.12.08.18.2.18.37v13.57c0,.12-.04.22-.12.3l-2.31,2.01c-.12.12-.25.14-.4.06s-.21-.2-.21-.37v-17.16Z"/>
</svg>