<?xml version="1.0" encoding="UTF-8"?>
<svg id="Layer_1" data-name="Layer 1" xmlns="http://www.w3.org/2000/svg" xmlns:xlink="http://www.w3.org/1999/xlink" viewBox="0 0 99.87 99.96">
  <defs>
    <style>
      .cls-1 {
        fill: url(#linear-gradient);
        stroke-width: 0px;
      }
    </style>
    <linearGradient id="linear-gradient" x1="0" y1="49.98" x2="99.87" y2="49.98" gradientUnits="userSpaceOnUse">
      <stop offset="0" stop-color="#92a4ff"/>
      <stop offset="1" stop-color="#fcd6f8"/>
    </linearGradient>
  </defs>
  <path id="Icon_zocial-call" data-name="Icon zocial-call" class="cls-1" d="m.21,19.62c.2-1.49.85-2.89,1.87-4L17.07.64c1.17-1,2.04-.83,2.62.5l12.11,22.72c.67,1.29.42,2.86-.62,3.87l-5.49,5.49c-1.02,1.04-1.64,2.41-1.75,3.87,0,2.5,1.29,5.7,3.87,9.61,2.28,3.52,4.83,6.86,7.62,9.99l3.87,3.99c1.17,1.17,2.66,2.6,4.5,4.31,2.84,2.47,5.87,4.73,9.05,6.74,4.2,2.79,7.51,4.18,9.93,4.18,1.5.03,2.95-.55,4-1.62l6.5-6.49c.92-1.13,2.56-1.35,3.74-.5l21.85,12.86c.52.25.89.74,1,1.31.09.53-.1,1.07-.5,1.44l-14.98,14.98c-1.11,1.02-2.5,1.67-3.99,1.87-4.67.52-9.39-.06-13.8-1.69-5.01-1.66-9.79-3.94-14.23-6.8-4.37-2.83-8.43-5.7-12.17-8.61-3.75-2.91-6.74-5.41-8.99-7.5l-3.25-3.13c-.83-.83-1.93-1.98-3.31-3.43-1.37-1.46-3.77-4.33-7.19-8.61-3.21-4-6.17-8.19-8.86-12.55-2.64-4.4-4.82-9.06-6.49-13.92C.25,28.34-.37,23.7.21,19.62Z"/>
</svg>