<svg id="Twitter_Icon" data-name="Twitter Icon" xmlns="http://www.w3.org/2000/svg" width="30.939" height="28.209" viewBox="0 0 30.939 28.209">
  <path id="Facebook_Icon" data-name="Facebook Icon" d="M31.5,14.753c0-7.839-6.924-14.19-15.47-14.19S.563,6.914.563,14.753c0,7.083,5.657,12.953,13.053,14.019V18.855H9.685v-4.1h3.93V11.627c0-3.556,2.308-5.521,5.843-5.521a25.892,25.892,0,0,1,3.463.277v3.49H20.97c-1.921,0-2.521,1.094-2.521,2.216v2.664h4.29l-.686,4.1h-3.6v9.917C25.845,27.706,31.5,21.836,31.5,14.753Z" transform="translate(-0.563 -0.563)" fill="#a7aefc"/>
</svg>
