<svg id="Twitter_Icon" data-name="Twitter Icon" xmlns="http://www.w3.org/2000/svg" width="30.939" height="28.209" viewBox="0 0 30.939 28.209">
  <path id="Twitter_Icon-2" data-name="Twitter Icon" d="M27.759,10.411c.02.309.02.617.02.926,0,9.41-6.38,20.253-18.042,20.253A16.53,16.53,0,0,1,0,28.395a11.7,11.7,0,0,0,1.531.088A11.849,11.849,0,0,0,9.4,25.441,6.492,6.492,0,0,1,3.475,20.5a7.144,7.144,0,0,0,1.2.11,6.019,6.019,0,0,0,1.669-.242,6.966,6.966,0,0,1-5.085-6.986V13.3a5.87,5.87,0,0,0,2.866.9A7.377,7.377,0,0,1,1.3,8.273a7.737,7.737,0,0,1,.864-3.592A17.461,17.461,0,0,0,15.234,12.13a8.984,8.984,0,0,1-.157-1.631c0-3.923,2.827-7.118,6.341-7.118a6.027,6.027,0,0,1,4.633,2.248A11.691,11.691,0,0,0,30.076,3.91a7.012,7.012,0,0,1-2.788,3.923,11.637,11.637,0,0,0,3.651-1.1,14.661,14.661,0,0,1-3.18,3.68Z" transform="translate(0 -3.381)" fill="#a7aefc"/>
</svg>
