<svg id="Instagram_Hover" data-name="Instagram Hover" xmlns="http://www.w3.org/2000/svg" width="30.939" height="28.209" viewBox="0 0 30.939 28.209">
  <path id="Instagram_Icon" data-name="Instagram Icon" d="M15.468,9.11c-4.39,0-7.931,3.229-7.931,7.233s3.541,7.233,7.931,7.233S23.4,20.346,23.4,16.342,19.858,9.11,15.468,9.11Zm0,11.935a4.954,4.954,0,0,1-5.156-4.7,4.95,4.95,0,0,1,5.156-4.7,4.949,4.949,0,0,1,5.156,4.7A4.954,4.954,0,0,1,15.468,21.044Zm10.1-12.23a1.858,1.858,0,0,1-3.7,0,1.858,1.858,0,0,1,3.7,0Zm5.253,1.712a7.955,7.955,0,0,0-2.5-5.911,9.727,9.727,0,0,0-6.481-2.279c-2.554-.132-10.208-.132-12.762,0A9.715,9.715,0,0,0,2.6,4.609,7.981,7.981,0,0,0,.1,10.52c-.145,2.329-.145,9.31,0,11.639a7.955,7.955,0,0,0,2.5,5.911,9.74,9.74,0,0,0,6.481,2.279c2.554.132,10.208.132,12.762,0a9.663,9.663,0,0,0,6.481-2.279,8.007,8.007,0,0,0,2.5-5.911c.145-2.329.145-9.3,0-11.632Zm-3.3,14.131a5.013,5.013,0,0,1-2.94,2.682c-2.036.736-6.868.567-9.118.567s-7.089.164-9.118-.567a5.014,5.014,0,0,1-2.94-2.682c-.808-1.857-.621-6.263-.621-8.315s-.179-6.465.621-8.315A5.013,5.013,0,0,1,6.35,5.346c2.036-.736,6.868-.567,9.118-.567s7.089-.164,9.118.567a5.014,5.014,0,0,1,2.94,2.682c.808,1.857.621,6.263.621,8.315S28.334,22.807,27.526,24.658Z" transform="translate(0.005 -2.238)" fill="#a7aefc"/>
</svg>
