<svg xmlns="http://www.w3.org/2000/svg" width="24.398" height="21.687" viewBox="0 0 24.398 21.687">
  <path id="Icon_awesome-shopping-cart" data-name="Icon awesome-shopping-cart" d="M22.37,12.763l2-8.81a1.017,1.017,0,0,0-.991-1.242H6.744L6.355.813a1.017,1.017,0,0,0-1-.813H1.017A1.017,1.017,0,0,0,0,1.017v.678A1.017,1.017,0,0,0,1.017,2.711h2.96L6.952,17.258a2.372,2.372,0,1,0,2.84.363h8.88a2.371,2.371,0,1,0,2.694-.441l.234-1.028a1.017,1.017,0,0,0-.991-1.242H9.239l-.277-1.355H21.378A1.017,1.017,0,0,0,22.37,12.763Z" fill="#a7aefc"/>
</svg>
