<svg id="Twitter_Icon" data-name="Twitter Icon" xmlns="http://www.w3.org/2000/svg" width="30.939" height="28.209" viewBox="0 0 30.939 28.209">
  <path id="Linkedin_Icon" data-name="Linkedin Icon" d="M28.729,2.25H2.2A2.126,2.126,0,0,0,0,4.284V28.425a2.126,2.126,0,0,0,2.2,2.034H28.729a2.132,2.132,0,0,0,2.21-2.034V4.284A2.132,2.132,0,0,0,28.729,2.25ZM9.351,26.429H4.765V12.967H9.358V26.429Zm-2.293-15.3A2.551,2.551,0,0,1,4.4,8.7,2.551,2.551,0,0,1,7.058,6.28,2.555,2.555,0,0,1,9.717,8.7,2.547,2.547,0,0,1,7.058,11.128Zm19.482,15.3H21.955V19.881c0-1.562-.035-3.57-2.383-3.57-2.39,0-2.756,1.7-2.756,3.457v6.662H12.231V12.967h4.4v1.839h.062a4.932,4.932,0,0,1,4.344-2.172c4.641,0,5.5,2.789,5.5,6.416Z" transform="translate(0 -2.25)" fill="#a7aefc"/>
</svg>
