<svg id="Group_10" data-name="Group 10" xmlns="http://www.w3.org/2000/svg" width="220.604" height="28.439" viewBox="0 0 220.604 28.439">
  <path id="Icon_awesome-star" data-name="Icon awesome-star" d="M14.7.988,11.077,8.342,2.963,9.525a1.778,1.778,0,0,0-.983,3.032l5.87,5.72L6.462,26.358A1.776,1.776,0,0,0,9.039,28.23L16.3,24.414l7.259,3.815a1.778,1.778,0,0,0,2.577-1.872l-1.388-8.081,5.87-5.72a1.778,1.778,0,0,0-.983-3.032L21.518,8.342,17.892.988a1.779,1.779,0,0,0-3.188,0Z" transform="translate(-1.441 0.001)" fill="#a7aefc"/>
  <path id="Icon_awesome-star-2" data-name="Icon awesome-star" d="M14.7.988,11.077,8.342,2.963,9.525a1.778,1.778,0,0,0-.983,3.032l5.87,5.72L6.462,26.358A1.776,1.776,0,0,0,9.039,28.23L16.3,24.414l7.259,3.815a1.778,1.778,0,0,0,2.577-1.872l-1.388-8.081,5.87-5.72a1.778,1.778,0,0,0-.983-3.032L21.518,8.342,17.892.988a1.779,1.779,0,0,0-3.188,0Z" transform="translate(46.282 0.001)" fill="#a7aefc"/>
  <path id="Icon_awesome-star-3" data-name="Icon awesome-star" d="M14.7.988,11.077,8.342,2.963,9.525a1.778,1.778,0,0,0-.983,3.032l5.87,5.72L6.462,26.358A1.776,1.776,0,0,0,9.039,28.23L16.3,24.414l7.259,3.815a1.778,1.778,0,0,0,2.577-1.872l-1.388-8.081,5.87-5.72a1.778,1.778,0,0,0-.983-3.032L21.518,8.342,17.892.988a1.779,1.779,0,0,0-3.188,0Z" transform="translate(94.004 0.001)" fill="#a7aefc"/>
  <path id="Icon_awesome-star-4" data-name="Icon awesome-star" d="M14.7.988,11.077,8.342,2.963,9.525a1.778,1.778,0,0,0-.983,3.032l5.87,5.72L6.462,26.358A1.776,1.776,0,0,0,9.039,28.23L16.3,24.414l7.259,3.815a1.778,1.778,0,0,0,2.577-1.872l-1.388-8.081,5.87-5.72a1.778,1.778,0,0,0-.983-3.032L21.518,8.342,17.892.988a1.779,1.779,0,0,0-3.188,0Z" transform="translate(141.727 0.001)" fill="#a7aefc"/>
  <path id="Icon_awesome-star-5" data-name="Icon awesome-star" d="M14.7.988,11.077,8.342,2.963,9.525a1.778,1.778,0,0,0-.983,3.032l5.87,5.72L6.462,26.358A1.776,1.776,0,0,0,9.039,28.23L16.3,24.414l7.259,3.815a1.778,1.778,0,0,0,2.577-1.872l-1.388-8.081,5.87-5.72a1.778,1.778,0,0,0-.983-3.032L21.518,8.342,17.892.988a1.779,1.779,0,0,0-3.188,0Z" transform="translate(189.45 0.001)" fill="#a7aefc"/>
</svg>
